<svg width="170" height="170" viewBox="0 0 170 170" fill="none" xmlns="http://www.w3.org/2000/svg">
<circle cx="85.2617" cy="84.5921" r="84.5006" fill="white"/>
<circle cx="85.2618" cy="84.5922" r="75.437" fill="white"/>
<path d="M169.762 84.5922C169.762 131.261 131.93 169.093 85.2618 169.093C38.5933 169.093 0.761108 131.261 0.761108 84.5922C0.761108 37.9238 38.5933 0.0915222 85.2618 0.0915222C131.93 0.0915222 169.762 37.9238 169.762 84.5922ZM5.05164 84.5922C5.05164 128.891 40.9629 164.802 85.2618 164.802C129.561 164.802 165.472 128.891 165.472 84.5922C165.472 40.2933 129.561 4.38205 85.2618 4.38205C40.9629 4.38205 5.05164 40.2933 5.05164 84.5922Z" fill="#2088FF"/>
<path d="M120.413 67.9872C122.22 67.7395 123.9 69.0043 123.994 70.8259C124.219 75.2314 123.691 79.6515 122.425 83.894C120.844 89.1936 118.147 94.0937 114.517 98.2656C110.886 102.437 106.405 105.784 101.375 108.082C96.344 110.38 90.8802 111.575 85.3497 111.588C79.8193 111.6 74.3501 110.43 69.3092 108.155C64.2683 105.88 59.7722 102.553 56.1226 98.3981C52.473 94.2428 49.7544 89.3549 48.1491 84.0626C46.864 79.8258 46.3162 75.4082 46.5214 71.0017C46.6062 69.1797 48.281 67.9073 50.0892 68.1468V68.1468C51.8973 68.3863 53.1511 70.0478 53.0981 71.8709C52.9973 75.3401 53.4583 78.8103 54.4699 82.1454C55.8018 86.5364 58.0574 90.5917 61.0854 94.0393C64.1134 97.487 67.8437 100.247 72.0261 102.135C76.2085 104.022 80.7462 104.993 85.3348 104.983C89.9233 104.972 94.4566 103.981 98.6303 102.074C102.804 100.168 106.522 97.3907 109.534 93.9294C112.547 90.4681 114.784 86.4025 116.096 82.0055C117.092 78.6659 117.537 75.1937 117.421 71.725C117.36 69.9021 118.606 68.2349 120.413 67.9872V67.9872Z" fill="#2088FF"/>
<rect x="81.3837" y="107.097" width="7.75611" height="47.3815" rx="3.87805" fill="#2088FF"/>
<rect x="63.164" y="14.7062" width="44.1956" height="85.2479" rx="22.0978" fill="#2088FF"/>
<path d="M65.6586 78.6286H107.108V37.1796H65.6586V78.6286Z" fill="black"/>
</svg>
